<svg width="252" height="432" viewBox="0 0 252 432" fill="none" xmlns="http://www.w3.org/2000/svg">
<rect x="160" width="92" height="1" fill="#E3B873"/>
<path fill-rule="evenodd" clip-rule="evenodd" d="M199.045 418L205.683 424.638L199.045 431.276L198.098 430.329L203.788 424.638L198.098 418.948L199.045 418Z" fill="white"/>
<path fill-rule="evenodd" clip-rule="evenodd" d="M204.736 425.308L164.228 425.308L164.228 423.968L204.736 423.968L204.736 425.308Z" fill="white"/>
<path fill-rule="evenodd" clip-rule="evenodd" d="M6.63807 431.276L2.29917e-05 424.638L6.63807 418L7.58563 418.948L1.89516 424.638L7.58563 430.329L6.63807 431.276Z" fill="white"/>
<path fill-rule="evenodd" clip-rule="evenodd" d="M0.947579 423.968L41.4556 423.968L41.4556 425.308L0.947578 425.308L0.947579 423.968Z" fill="white"/>
<rect x="125.164" y="419.457" width="9.56667" height="9.56667" rx="4.78333" fill="white" fill-opacity="0.3"/>
<rect x="98.0583" y="419.457" width="9.56667" height="9.56667" rx="4.78333" fill="white" fill-opacity="0.3"/>
<rect x="70.9528" y="419.456" width="9.56667" height="9.56667" rx="4.78333" fill="white"/>
</svg>
